<?xml version="1.0" encoding="UTF-8" standalone="no"?>
<!-- Created with Inkscape (http://www.inkscape.org/) -->

<svg
   width="512"
   height="512"
   viewBox="0 0 135.46667 135.46667"
   version="1.1"
   id="svg1"
   xml:space="preserve"
   inkscape:version="1.4.2 (ebf0e94, 2025-05-08)"
   sodipodi:docname="feather_tk_512.svg"
   xmlns:inkscape="http://www.inkscape.org/namespaces/inkscape"
   xmlns:sodipodi="http://sodipodi.sourceforge.net/DTD/sodipodi-0.dtd"
   xmlns="http://www.w3.org/2000/svg"
   xmlns:svg="http://www.w3.org/2000/svg"><sodipodi:namedview
     id="namedview1"
     pagecolor="#ffffff"
     bordercolor="#000000"
     borderopacity="0.25"
     inkscape:showpageshadow="2"
     inkscape:pageopacity="0.0"
     inkscape:pagecheckerboard="0"
     inkscape:deskcolor="#d1d1d1"
     inkscape:document-units="px"
     inkscape:current-layer="layer1"
     showgrid="false" /><defs
     id="defs1" /><g
     inkscape:label="Layer 1"
     inkscape:groupmode="layer"
     id="layer1"><g
       id="path5"
       style="opacity:1"><path
         style="baseline-shift:baseline;display:inline;overflow:visible;vector-effect:none;fill:#f0f0f0;stroke-linecap:round;enable-background:accumulate;stop-color:#000000;stop-opacity:1"
         d="M 68.262501,21.695832 V 127.52915"
         id="path12" /><path
         id="path13"
         style="baseline-shift:baseline;display:inline;overflow:visible;vector-effect:none;stroke-linecap:round;enable-background:accumulate;stop-color:#000000;stop-opacity:1"
         d="M 68.343634 4.3656251 C 60.685674 4.3656257 50.822569 12.793769 42.959653 25.653732 C 37.463962 34.642048 41.27605 50.130413 44.952296 59.865598 C 41.399636 56.035809 37.440209 48.204591 34.863506 44.072246 C 27.06516 66.915467 33.804326 90.770322 53.689747 99.401687 C 47.6479 99.050339 42.493519 97.354951 37.462314 95.663931 C 43.183926 106.5607 52.639924 113.8212 64.95521 114.94441 L 64.95521 127.52917 C 64.955569 129.35523 66.435409 130.83558 68.261468 130.83594 C 70.088289 130.83666 71.569951 129.35599 71.57031 127.52917 L 71.57031 114.95164 C 86.567952 113.58743 98.113926 102.70536 102.53431 86.392145 C 97.808691 89.337636 95.586374 89.902569 90.793427 90.111298 C 107.28259 81.48382 106.53643 62.408684 102.65885 43.807663 C 100.59643 48.849953 98.026567 58.161762 94.671743 60.909979 C 97.531994 53.370888 101.30149 45.827886 98.060167 32.642453 C 91.147971 14.650253 77.43508 4.3656244 68.343634 4.3656251 z " /></g></g></svg>
