<?xml version="1.0" encoding="UTF-8" standalone="no"?>
<!-- Created with Inkscape (http://www.inkscape.org/) -->

<svg
   width="20"
   height="20"
   viewBox="0 0 5.2916665 5.2916666"
   version="1.1"
   id="svg8"
   inkscape:version="1.4.2 (ebf0e94, 2025-05-08)"
   sodipodi:docname="Undo.svg"
   xmlns:inkscape="http://www.inkscape.org/namespaces/inkscape"
   xmlns:sodipodi="http://sodipodi.sourceforge.net/DTD/sodipodi-0.dtd"
   xmlns="http://www.w3.org/2000/svg"
   xmlns:svg="http://www.w3.org/2000/svg"
   xmlns:rdf="http://www.w3.org/1999/02/22-rdf-syntax-ns#"
   xmlns:cc="http://creativecommons.org/ns#"
   xmlns:dc="http://purl.org/dc/elements/1.1/">
  <defs
     id="defs2" />
  <sodipodi:namedview
     id="base"
     pagecolor="#dcdcdc"
     bordercolor="#666666"
     borderopacity="1.0"
     inkscape:pageopacity="0"
     inkscape:pageshadow="2"
     inkscape:zoom="41.5"
     inkscape:cx="10"
     inkscape:cy="10"
     inkscape:document-units="px"
     inkscape:current-layer="ForwardPlayback"
     showgrid="true"
     units="px"
     inkscape:window-width="1532"
     inkscape:window-height="1032"
     inkscape:window-x="2087"
     inkscape:window-y="2"
     inkscape:window-maximized="0"
     inkscape:pagecheckerboard="0"
     inkscape:showpageshadow="2"
     inkscape:deskcolor="#d1d1d1">
    <inkscape:grid
       type="xygrid"
       id="grid4526"
       empspacing="10"
       originx="0"
       originy="0"
       spacingy="0.26458332"
       spacingx="0.26458332"
       units="px" />
  </sodipodi:namedview>
  <metadata
     id="metadata5">
    <rdf:RDF>
      <cc:Work
         rdf:about="">
        <dc:format>image/svg+xml</dc:format>
        <dc:type
           rdf:resource="http://purl.org/dc/dcmitype/StillImage" />
      </cc:Work>
    </rdf:RDF>
  </metadata>
  <g
     inkscape:label="Layer 1"
     inkscape:groupmode="layer"
     id="layer1"
     transform="translate(0,-291.70831)">
    <g
       id="ForwardPlayback"
       inkscape:label="#g4524"
       inkscape:export-xdpi="96"
       inkscape:export-ydpi="96">
      <path
         id="path1"
         style="fill:#f0f0f0;fill-opacity:1;stroke-width:2.64583"
         d="m 2.6458332,293.16351 a 1.190625,1.190625 0 0 1 1.190625,1.19063 1.190625,1.190625 0 0 1 -1.190625,1.19062 1.190625,1.190625 0 0 1 -1.190625,-1.19062 h 0.2645834 a 0.92604166,0.9260416 0 0 0 0.9260416,0.92604 0.92604166,0.9260416 0 0 0 0.9260416,-0.92604 0.92604166,0.9260416 0 0 0 -0.9260416,-0.92604 0.92604166,0.9260416 0 0 0 -0.0062,5.1e-4 v -0.2651 a 1.190625,1.190625 0 0 1 0.0062,0 z" />
      <path
         style="fill:#f0f0f0;fill-opacity:1;stroke-width:3.18444"
         d="m 1.7197916,293.29581 0.9198404,-0.66146 v 1.32291 z"
         id="path2" />
    </g>
  </g>
</svg>
