<?xml version="1.0" encoding="UTF-8" standalone="no"?>
<!-- Created with Inkscape (http://www.inkscape.org/) -->

<svg
   width="20"
   height="20"
   viewBox="0 0 5.2916665 5.2916666"
   version="1.1"
   id="svg8"
   inkscape:version="1.4.2 (ebf0e94, 2025-05-08)"
   sodipodi:docname="ViewZoomIn.svg"
   xmlns:inkscape="http://www.inkscape.org/namespaces/inkscape"
   xmlns:sodipodi="http://sodipodi.sourceforge.net/DTD/sodipodi-0.dtd"
   xmlns="http://www.w3.org/2000/svg"
   xmlns:svg="http://www.w3.org/2000/svg"
   xmlns:rdf="http://www.w3.org/1999/02/22-rdf-syntax-ns#"
   xmlns:cc="http://creativecommons.org/ns#"
   xmlns:dc="http://purl.org/dc/elements/1.1/">
  <defs
     id="defs2" />
  <sodipodi:namedview
     id="base"
     pagecolor="#c8c8c8"
     bordercolor="#666666"
     borderopacity="1.0"
     inkscape:pageopacity="0"
     inkscape:pageshadow="2"
     inkscape:zoom="31.659099"
     inkscape:cx="6.9964088"
     inkscape:cy="10.423544"
     inkscape:document-units="px"
     inkscape:current-layer="ForwardPlayback"
     showgrid="true"
     units="px"
     inkscape:window-width="1920"
     inkscape:window-height="1011"
     inkscape:window-x="0"
     inkscape:window-y="32"
     inkscape:window-maximized="1"
     inkscape:snap-bbox="true"
     inkscape:bbox-nodes="true"
     inkscape:snap-global="true"
     inkscape:pagecheckerboard="0"
     inkscape:object-nodes="false"
     inkscape:showpageshadow="2"
     inkscape:deskcolor="#d1d1d1">
    <inkscape:grid
       type="xygrid"
       id="grid4526"
       empspacing="10"
       originx="0"
       originy="0"
       spacingy="1"
       spacingx="1"
       units="px" />
  </sodipodi:namedview>
  <metadata
     id="metadata5">
    <rdf:RDF>
      <cc:Work
         rdf:about="">
        <dc:format>image/svg+xml</dc:format>
        <dc:type
           rdf:resource="http://purl.org/dc/dcmitype/StillImage" />
      </cc:Work>
    </rdf:RDF>
  </metadata>
  <g
     inkscape:label="Layer 1"
     inkscape:groupmode="layer"
     id="layer1"
     transform="translate(0,-291.70831)">
    <g
       id="ForwardPlayback"
       inkscape:label="#g4524"
       inkscape:export-xdpi="96"
       inkscape:export-ydpi="96">
      <path
         id="path927"
         style="fill:#f0f0f0;stroke-width:0.264583"
         d="M 2.6458333 291.97289 A 1.3229167 1.3229167 0 0 0 1.7104899 292.36047 A 1.3229167 1.3229167 0 0 0 1.7104899 294.23115 A 1.3229167 1.3229167 0 0 0 3.5811767 294.23115 A 1.3229167 1.3229167 0 0 0 3.5811767 292.36047 A 1.3229167 1.3229167 0 0 0 2.6458333 291.97289 z M 2.6458333 292.23748 A 1.0583333 1.0583333 0 0 1 3.394108 292.54754 A 1.0583333 1.0583333 0 0 1 3.394108 294.04408 A 1.0583333 1.0583333 0 0 1 1.8975586 294.04408 A 1.0583333 1.0583333 0 0 1 1.8975586 292.54754 A 1.0583333 1.0583333 0 0 1 2.6458333 292.23748 z " />
      <rect
         style="fill:#f0f0f0;stroke-width:0.264583"
         id="rect1034"
         width="0.52916664"
         height="2.1166666"
         x="-205.78516"
         y="210.32071"
         transform="rotate(-45)" />
      <path
         id="rect831"
         style="fill:#f0f0f0;fill-opacity:1;stroke:none;stroke-width:0.748355;stroke-miterlimit:4;stroke-dasharray:none;stroke-opacity:1"
         d="m 1.5875533,294.35413 -0.2645979,2e-5 -3.88e-5,1.05833 H 0.26462053 l 1.453e-5,0.26457 1.05829604,-1e-5 -2.89e-5,1.05836 0.2645978,-1e-5 2.19e-5,-1.05838 1.0583491,5e-5 -1.45e-5,-0.26457 -1.0583421,-3e-5 z"
         sodipodi:nodetypes="ccccccccccccc" />
    </g>
  </g>
</svg>
